<?xml version='1.0' encoding='iso-8859-1'?>
<!DOCTYPE svg PUBLIC '-//W3C//DTD SVG 1.1//EN' 'http://www.w3.org/Graphics/SVG/1.1/DTD/svg11.dtd'>
<!-- Uploaded to: SVG Repo, www.svgrepo.com, Generator: SVG Repo Mixer Tools -->
<svg fill="#000000" height="800px" width="800px" version="1.1" xmlns="http://www.w3.org/2000/svg" viewBox="0 0 512 512" xmlns:xlink="http://www.w3.org/1999/xlink" enable-background="new 0 0 512 512">
  <g>
    <path d="m175.831,511.994c-2.531,0-5.078-0.117-7.633-0.359-40.485-3.859-72.196-40.047-72.196-82.384 0-7.305-5.945-13.25-13.25-13.25h-2.75c-22.485,0-44.071-9.547-59.204-26.188-15.125-16.641-22.57-39.094-20.43-61.61 3.781-39.594 35.258-68.587 78.313-72.149 0.227-0.016 0.453-0.039 0.68-0.055-0.227-0.016-0.453-0.039-0.68-0.055-43.055-3.563-74.532-32.555-78.313-72.134-2.148-22.524 5.297-44.977 20.422-61.618 15.141-16.649 36.719-26.196 59.212-26.196h2.75c7.305,0 13.25-5.945 13.25-13.25v-2.75c0-22.485 9.547-44.071 26.188-59.204 16.641-15.125 39.079-22.547 61.61-20.43 39.594,3.781 68.587,35.258 72.149,78.313 0.016,0.227 0.039,0.453 0.055,0.68 0.016-0.227 0.039-0.453 0.055-0.68 1.984-24.008 13.125-46.141 30.547-60.719 15.961-13.344 36.25-19.586 57.204-17.594 40.485,3.859 72.196,40.047 72.196,82.384 0,7.305 5.945,13.25 13.25,13.25h2.75c22.492,0 44.071,9.547 59.204,26.196 15.125,16.633 22.571,39.086 20.422,61.602-3.773,39.594-35.243,68.587-78.306,72.149-0.227,0.016-0.453,0.039-0.68,0.055 0.227,0.016 0.453,0.039 0.68,0.055 43.063,3.563 74.532,32.555 78.306,72.141 2.148,22.508-5.289,44.961-20.414,61.602-15.133,16.656-36.719,26.203-59.211,26.203h-2.75c-7.305,0-13.25,5.945-13.25,13.25v2.75c0,22.485-9.547,44.063-26.188,59.196-16.641,15.133-39.125,22.594-61.618,20.438-39.586-3.781-68.579-35.258-72.141-78.313-0.016-0.227-0.039-0.453-0.055-0.68-0.016,0.227-0.039,0.453-0.055,0.68-1.984,24.008-13.125,46.141-30.547,60.719-14.009,11.713-31.376,17.955-49.572,17.955zm80.173-191.994c17.649,0 32,14.352 32,32-0.031,1.125-1.961,55.657-0.055,78.68 2.281,27.532 19.274,46.805 43.289,49.094 13.781,1.352 26.93-3.039 37.047-12.25 9.992-9.086 15.719-22.031 15.719-35.524v-2.75c0-24.953 20.297-45.25 45.25-45.25h2.75c13.5,0 26.445-5.734 35.532-15.727 9.203-10.125 13.555-23.281 12.234-37.039-2.289-24.024-21.555-41.008-49.086-43.29-23.039-1.906-77.556,0.023-78.102,0.047-0.008,0-0.016,0-0.023,0-18.211,0-32.555-14.352-32.555-31.992 0-17.649 14.352-32 32-32 1.117,0.039 55.657,1.953 78.681,0.055 27.532-2.281 46.797-19.274 49.086-43.289 1.313-13.766-3.031-26.922-12.234-37.047-9.086-9.992-22.039-15.719-35.532-15.719h-2.75c-24.953,0-45.25-20.297-45.25-45.25 0-26.024-18.992-48.211-43.227-50.524-12.539-1.234-24.164,2.352-33.641,10.281-10.906,9.125-17.899,23.274-19.188,38.813-1.906,23.024 0.023,77.556 0.047,78.102 0.008,18.227-14.344,32.579-31.993,32.579-17.649,0-32-14.352-32-32 0.031-1.125 1.961-55.657 0.055-78.681-2.281-27.531-19.274-46.805-43.297-49.094-13.821-1.344-26.922,3.039-37.04,12.25-9.992,9.078-15.719,22.032-15.719,35.524v2.75c0,24.953-20.297,45.25-45.25,45.25h-2.75c-13.492,0-26.446,5.734-35.532,15.727-9.211,10.125-13.555,23.281-12.242,37.047 2.289,24.008 21.563,41 49.094,43.282 23.024,1.891 77.548-0.031 78.102-0.047 0.008,0 0.016,0 0.023,0 18.211,0 32.555,14.352 32.555,31.993 0,17.649-14.352,32-32,32-1.117-0.031-55.657-1.945-78.681-0.055-27.531,2.281-46.805,19.274-49.094,43.297-1.313,13.758 3.039,26.914 12.25,37.039 9.079,9.992 22.033,15.718 35.525,15.718h2.75c24.953,0 45.25,20.297 45.25,45.25 0,26.024 18.992,48.211 43.227,50.524 12.5,1.219 24.172-2.359 33.641-10.281 10.906-9.125 17.899-23.274 19.188-38.813 1.906-23.024-0.023-77.555-0.047-78.102-0.008-18.226 14.344-32.578 31.993-32.578z"/>
  </g>
</svg>